<?xml version="1.0" encoding="UTF-8"?>
<svg xmlns="http://www.w3.org/2000/svg" xmlns:xlink="http://www.w3.org/1999/xlink" width="24px" height="24px" viewBox="0 0 24 24" version="1.1">
<g id="surface1">
<path style=" stroke:none;fill-rule:evenodd;fill:rgb(55.686275%,55.686275%,57.647059%);fill-opacity:1;" d="M 18.398438 2.398438 C 18.367188 2.398438 18.332031 2.402344 18.296875 2.40625 L 18.28125 2.410156 C 18.273438 2.410156 18.265625 2.410156 18.257812 2.414062 L 7.886719 4.007812 C 7.695312 4.035156 7.519531 4.128906 7.394531 4.277344 C 7.269531 4.421875 7.199219 4.609375 7.199219 4.800781 L 7.199219 15.367188 C 7.199219 16.320312 7.089844 16.800781 5.203125 16.800781 C 3.117188 16.800781 2.398438 18.015625 2.398438 19.207031 C 2.398438 20.171875 2.964844 21.605469 5.199219 21.605469 C 7.703125 21.605469 8.800781 20.074219 8.800781 18.714844 L 8.800781 8.351562 L 17.601562 6.917969 L 17.601562 13.769531 C 17.601562 14.71875 17.492188 15.203125 15.601562 15.203125 C 13.519531 15.199219 12.800781 16.417969 12.800781 17.605469 C 12.800781 18.574219 13.363281 20.007812 15.601562 20.007812 C 18.101562 20.007812 19.199219 18.320312 19.199219 16.960938 L 19.199219 3.199219 C 19.199219 2.988281 19.117188 2.785156 18.964844 2.632812 C 18.816406 2.484375 18.613281 2.398438 18.398438 2.398438 Z M 18.398438 2.398438 "/>
</g>
</svg>
