<?xml version="1.0" encoding="UTF-8"?>
<svg xmlns="http://www.w3.org/2000/svg" xmlns:xlink="http://www.w3.org/1999/xlink" width="14px" height="14px" viewBox="0 0 14 14" version="1.1">
<g id="surface1">
<path style=" stroke:none;fill-rule:evenodd;fill:rgb(100%,100%,100%);fill-opacity:1;" d="M 11.800781 10 C 11.324219 10 10.863281 10.191406 10.527344 10.527344 C 10.191406 10.863281 10 11.324219 10 11.800781 C 10 12.277344 10.191406 12.734375 10.527344 13.074219 C 10.863281 13.410156 11.324219 13.601562 11.800781 13.601562 C 12.277344 13.601562 12.734375 13.410156 13.074219 13.074219 C 13.410156 12.734375 13.601562 12.277344 13.601562 11.800781 C 13.601562 11.324219 13.410156 10.863281 13.074219 10.527344 C 12.734375 10.191406 12.277344 10 11.800781 10 Z M 7 10 C 6.523438 10 6.066406 10.191406 5.726562 10.527344 C 5.390625 10.863281 5.199219 11.324219 5.199219 11.800781 C 5.199219 12.277344 5.390625 12.734375 5.726562 13.074219 C 6.066406 13.410156 6.523438 13.601562 7 13.601562 C 7.476562 13.601562 7.933594 13.410156 8.273438 13.074219 C 8.609375 12.734375 8.800781 12.277344 8.800781 11.800781 C 8.800781 11.324219 8.609375 10.863281 8.273438 10.527344 C 7.933594 10.191406 7.476562 10 7 10 Z M 2.199219 10 C 1.722656 10 1.265625 10.191406 0.925781 10.527344 C 0.589844 10.863281 0.398438 11.324219 0.398438 11.800781 C 0.398438 12.277344 0.589844 12.734375 0.925781 13.074219 C 1.265625 13.410156 1.722656 13.601562 2.199219 13.601562 C 2.675781 13.601562 3.136719 13.410156 3.472656 13.074219 C 3.808594 12.734375 4 12.277344 4 11.800781 C 4 11.324219 3.808594 10.863281 3.472656 10.527344 C 3.136719 10.191406 2.675781 10 2.199219 10 Z M 11.800781 5.199219 C 11.324219 5.199219 10.863281 5.390625 10.527344 5.726562 C 10.191406 6.066406 10 6.523438 10 7 C 10 7.476562 10.191406 7.933594 10.527344 8.273438 C 10.863281 8.609375 11.324219 8.800781 11.800781 8.800781 C 12.277344 8.800781 12.734375 8.609375 13.074219 8.273438 C 13.410156 7.933594 13.601562 7.476562 13.601562 7 C 13.601562 6.523438 13.410156 6.066406 13.074219 5.726562 C 12.734375 5.390625 12.277344 5.199219 11.800781 5.199219 Z M 7 5.199219 C 6.523438 5.199219 6.066406 5.390625 5.726562 5.726562 C 5.390625 6.066406 5.199219 6.523438 5.199219 7 C 5.199219 7.476562 5.390625 7.933594 5.726562 8.273438 C 6.066406 8.609375 6.523438 8.800781 7 8.800781 C 7.476562 8.800781 7.933594 8.609375 8.273438 8.273438 C 8.609375 7.933594 8.800781 7.476562 8.800781 7 C 8.800781 6.523438 8.609375 6.066406 8.273438 5.726562 C 7.933594 5.390625 7.476562 5.199219 7 5.199219 Z M 2.199219 5.199219 C 1.722656 5.199219 1.265625 5.390625 0.925781 5.726562 C 0.589844 6.066406 0.398438 6.523438 0.398438 7 C 0.398438 7.476562 0.589844 7.933594 0.925781 8.273438 C 1.265625 8.609375 1.722656 8.800781 2.199219 8.800781 C 2.675781 8.800781 3.136719 8.609375 3.472656 8.273438 C 3.808594 7.933594 4 7.476562 4 7 C 4 6.523438 3.808594 6.066406 3.472656 5.726562 C 3.136719 5.390625 2.675781 5.199219 2.199219 5.199219 Z M 11.800781 0.398438 C 11.324219 0.398438 10.863281 0.589844 10.527344 0.925781 C 10.191406 1.265625 10 1.722656 10 2.199219 C 10 2.675781 10.191406 3.136719 10.527344 3.472656 C 10.863281 3.808594 11.324219 4 11.800781 4 C 12.277344 4 12.734375 3.808594 13.074219 3.472656 C 13.410156 3.136719 13.601562 2.675781 13.601562 2.199219 C 13.601562 1.722656 13.410156 1.265625 13.074219 0.925781 C 12.734375 0.589844 12.277344 0.398438 11.800781 0.398438 Z M 7 0.398438 C 6.523438 0.398438 6.066406 0.589844 5.726562 0.925781 C 5.390625 1.265625 5.199219 1.722656 5.199219 2.199219 C 5.199219 2.675781 5.390625 3.136719 5.726562 3.472656 C 6.066406 3.808594 6.523438 4 7 4 C 7.476562 4 7.933594 3.808594 8.273438 3.472656 C 8.609375 3.136719 8.800781 2.675781 8.800781 2.199219 C 8.800781 1.722656 8.609375 1.265625 8.273438 0.925781 C 7.933594 0.589844 7.476562 0.398438 7 0.398438 Z M 2.199219 0.398438 C 1.722656 0.398438 1.265625 0.589844 0.925781 0.925781 C 0.589844 1.265625 0.398438 1.722656 0.398438 2.199219 C 0.398438 2.675781 0.589844 3.136719 0.925781 3.472656 C 1.265625 3.808594 1.722656 4 2.199219 4 C 2.675781 4 3.136719 3.808594 3.472656 3.472656 C 3.808594 3.136719 4 2.675781 4 2.199219 C 4 1.722656 3.808594 1.265625 3.472656 0.925781 C 3.136719 0.589844 2.675781 0.398438 2.199219 0.398438 Z M 2.199219 0.398438 "/>
</g>
</svg>
