<svg width="10" height="16" viewBox="0 0 10 16" fill="none" xmlns="http://www.w3.org/2000/svg">
<path fill-rule="evenodd" clip-rule="evenodd" d="M5.0961 6.80233C6.0699 6.85333 6.80001 7.72694 6.80001 8.70194V8.93397C6.80001 9.26578 6.50949 9.5209 6.18009 9.4789C5.94969 9.4489 5.76231 9.27796 5.71251 9.05116L5.58595 8.47226C5.54995 8.30786 5.44959 8.1742 5.31759 8.0914C5.30859 8.0854 5.29906 8.07979 5.28946 8.07499C5.20246 8.02639 5.10438 7.99999 5.00118 7.99999H4.99884C4.90224 7.99999 4.80919 8.02302 4.72579 8.06562C4.70479 8.07642 4.68405 8.08814 4.66485 8.10194C4.54065 8.18534 4.4477 8.31388 4.4129 8.47108L4.28634 9.05116C4.23654 9.27796 4.05033 9.4495 3.81993 9.4789C3.49113 9.5215 3.20001 9.26578 3.20001 8.93397V8.59999C3.20001 7.57399 4.0581 6.74833 5.0961 6.80233ZM3.77423 5.59999C2.88683 5.59999 2.07542 6.08616 1.65782 6.86796L0.386342 9.24569C0.147542 9.60989 0.137822 10.0801 0.366422 10.4551C0.574622 10.7971 0.943272 11.0012 1.33087 11.0012C1.38247 11.0012 1.43453 10.9967 1.48673 10.9895L2.60001 10.8465V11.6891L0.702742 13.0332C0.387742 13.257 0.200012 13.6206 0.200012 14.007C0.200012 14.6646 0.734782 15.2 1.39298 15.2H2.71603C2.64823 15.011 2.60001 14.8124 2.60001 14.6C2.60001 13.6058 3.40581 12.8 4.40001 12.8C4.74741 12.8 5.00001 12.8984 5.00001 12.8984L6.98634 13.5301L4.40001 14C4.3205 13.9989 4.24157 14.0136 4.16778 14.0432C4.094 14.0729 4.02685 14.1169 3.97023 14.1727C3.91361 14.2285 3.86865 14.2951 3.83796 14.3684C3.80727 14.4418 3.79147 14.5205 3.79147 14.6C3.79147 14.6795 3.80727 14.7582 3.83796 14.8316C3.86865 14.9049 3.91361 14.9715 3.97023 15.0273C4.02685 15.0831 4.094 15.1271 4.16778 15.1568C4.24157 15.1864 4.3205 15.2011 4.40001 15.2H8.60704C9.09483 15.2 9.43944 14.8568 9.62306 14.4313C9.67899 14.3756 9.7234 14.3095 9.75376 14.2368C9.78413 14.164 9.79984 14.0859 9.80001 14.007C9.80001 13.62 9.61134 13.2562 9.29845 13.0332C9.29767 13.0332 9.29689 13.0332 9.29611 13.0332L7.40001 11.6891V10.8465L8.50509 10.9883C8.95389 11.0525 9.39721 10.8433 9.6336 10.4551C9.86161 10.0801 9.85248 9.61049 9.61368 9.24569L8.3422 6.86796C7.924 6.08616 7.11259 5.59999 6.22579 5.59999H3.77423ZM5.00001 0.799988C4.52262 0.799988 4.06478 0.989628 3.72722 1.3272C3.38965 1.66477 3.20001 2.1226 3.20001 2.59999C3.20001 3.07738 3.38965 3.53522 3.72722 3.87278C4.06478 4.21035 4.52262 4.39999 5.00001 4.39999C5.4774 4.39999 5.93524 4.21035 6.2728 3.87278C6.61037 3.53522 6.80001 3.07738 6.80001 2.59999C6.80001 2.1226 6.61037 1.66476 6.2728 1.3272C5.93524 0.989628 5.4774 0.799988 5.00001 0.799988Z" fill="white"/>
</svg>
