<svg width="16" height="16" viewBox="0 0 16 16" fill="none" xmlns="http://www.w3.org/2000/svg">
<g clip-path="url(#clip0_0_1573)">
<path fill-rule="evenodd" clip-rule="evenodd" d="M14.4033 8.00001C14.4033 7.79948 14.2881 7.63148 14.1244 7.54028L14.1276 7.53494L3.51425 1.69921L3.50358 1.70454C3.41718 1.64374 3.31745 1.60001 3.20331 1.60001C2.90891 1.60001 2.66998 1.83894 2.66998 2.13334C2.66998 2.13387 2.67051 2.13441 2.67051 2.13547H2.66998V8V13.8645H2.67051C2.67051 13.8656 2.66998 13.8661 2.66998 13.8667C2.66998 14.1611 2.90891 14.4 3.20331 14.4C3.31744 14.4 3.41718 14.3563 3.50411 14.2955L3.51424 14.3008L14.1276 8.46507L14.1244 8.45973C14.2881 8.36853 14.4033 8.20053 14.4033 8L14.4033 8.00001Z" fill="white"/>
</g>
<defs>
<clipPath id="clip0_0_1573">
<rect width="16" height="16" fill="white"/>
</clipPath>
</defs>
</svg>
