<svg width="19" height="18" viewBox="0 0 19 18" fill="none" xmlns="http://www.w3.org/2000/svg">
<g clip-path="url(#clip0_0_1010)">
<path fill-rule="evenodd" clip-rule="evenodd" d="M9.50002 1.20001C7.18742 1.20001 5.30002 3.08741 5.30002 5.40001V6.60001H4.10002C3.43702 6.60001 2.90002 7.13701 2.90002 7.80001V15C2.90002 15.663 3.43702 16.2 4.10002 16.2H14.9C15.563 16.2 16.1 15.663 16.1 15V7.80001C16.1 7.13701 15.563 6.60001 14.9 6.60001H6.50002V5.40001C6.50002 3.73581 7.83582 2.40001 9.50002 2.40001C10.8106 2.40001 11.9137 3.23681 12.3254 4.4004C12.3503 4.47643 12.3902 4.5467 12.4427 4.60709C12.4952 4.66748 12.5592 4.71677 12.631 4.75205C12.7028 4.78733 12.7809 4.8079 12.8608 4.81254C12.9406 4.81719 13.0206 4.80581 13.096 4.77909C13.1715 4.75236 13.2408 4.71083 13.2999 4.65692C13.359 4.60302 13.4068 4.53784 13.4403 4.46521C13.4739 4.39259 13.4926 4.31399 13.4953 4.23403C13.498 4.15407 13.4848 4.07437 13.4563 3.99962C12.8792 2.36841 11.3226 1.20001 9.50002 1.20001Z" fill="white"/>
</g>
<defs>
<clipPath id="clip0_0_1010">
<rect width="18" height="18" fill="white" transform="translate(0.5)"/>
</clipPath>
</defs>
</svg>
