<?xml version="1.0" encoding="UTF-8"?>
<svg xmlns="http://www.w3.org/2000/svg" xmlns:xlink="http://www.w3.org/1999/xlink" width="24px" height="24px" viewBox="0 0 24 24" version="1.1">
<g id="surface1">
<path style=" stroke:none;fill-rule:evenodd;fill:rgb(55.686275%,55.686275%,57.647059%);fill-opacity:1;" d="M 14.878906 15.839844 L 14.878906 13.917969 C 15.3125 13.703125 16.546875 12.234375 16.675781 11.085938 C 17.015625 11.058594 17.550781 10.746094 17.707031 9.515625 C 17.792969 8.855469 17.457031 8.484375 17.253906 8.367188 C 17.253906 8.367188 17.761719 7.402344 17.761719 6.238281 C 17.761719 3.910156 16.84375 1.921875 14.878906 1.921875 C 14.878906 1.921875 14.199219 0.480469 12 0.480469 C 7.925781 0.480469 6.238281 3.09375 6.238281 6.238281 C 6.238281 7.300781 6.746094 8.367188 6.746094 8.367188 C 6.542969 8.484375 6.207031 8.855469 6.292969 9.515625 C 6.449219 10.746094 6.984375 11.058594 7.324219 11.085938 C 7.453125 12.234375 8.6875 13.703125 9.121094 13.917969 L 9.121094 15.839844 C 8.160156 18.71875 0.480469 16.800781 0.480469 23.519531 L 23.519531 23.519531 C 23.519531 16.800781 15.839844 18.71875 14.878906 15.839844 Z M 14.878906 15.839844 "/>
</g>
</svg>
