<svg width="12" height="25" viewBox="0 0 12 25" fill="none" xmlns="http://www.w3.org/2000/svg">
<path fill-rule="evenodd" clip-rule="evenodd" d="M6.6234 19.5367L6.87314 23.3028C6.90674 23.8096 7.32791 24.2033 7.83564 24.2033C8.36764 24.2033 8.79997 23.771 8.79997 23.239V19.5367H6.6234ZM3.19997 19.5367V23.239C3.19997 23.771 3.63229 24.2033 4.16429 24.2033C4.67202 24.2033 5.09319 23.8087 5.12679 23.3028L5.37653 19.5367H3.19997ZM5.99997 8.33667C4.47966 8.33667 3.14402 9.37895 2.77523 10.8541L1.36064 16.5106C1.32637 16.6482 1.32391 16.7919 1.35342 16.9306C1.38293 17.0693 1.44365 17.1994 1.53098 17.3112C1.61831 17.4229 1.72994 17.5133 1.8574 17.5755C1.98487 17.6377 2.12482 17.67 2.26663 17.67H9.70778C9.71629 17.6701 9.72479 17.6701 9.7333 17.67C9.87512 17.67 10.0151 17.6377 10.1425 17.5755C10.27 17.5133 10.3816 17.4229 10.4689 17.3112C10.5563 17.1994 10.617 17.0693 10.6465 16.9306C10.676 16.7919 10.6735 16.6482 10.6393 16.5106L9.22471 10.8541C8.85592 9.37895 7.52027 8.33667 5.99997 8.33667ZM8.80179 4.60515C8.80179 4.60515 8.72992 5.92964 9.50179 6.7015C10.2737 7.47337 11.5981 7.4015 11.5981 7.4015C11.5981 7.4015 11.67 6.07701 10.8981 5.30515C10.1263 4.53329 8.80179 4.60515 8.80179 4.60515ZM2.97939 4.60515C2.57046 4.62086 1.68069 4.72625 1.10179 5.30515C0.329924 6.07701 0.401794 7.4015 0.401794 7.4015C0.401794 7.4015 1.72628 7.47337 2.49814 6.7015C3.27001 5.92964 3.19814 4.60515 3.19814 4.60515C3.19814 4.60515 3.11571 4.59992 2.97939 4.60515ZM5.99997 0.869995C5.25736 0.869995 4.54517 1.165 4.02007 1.6901C3.49497 2.2152 3.19997 2.92739 3.19997 3.67C3.19997 4.41261 3.49497 5.12479 4.02007 5.6499C4.54517 6.175 5.25736 6.47 5.99997 6.47C6.74257 6.47 7.45476 6.175 7.97987 5.6499C8.50497 5.12479 8.79997 4.41261 8.79997 3.67C8.79997 2.92739 8.50497 2.2152 7.97987 1.6901C7.45476 1.165 6.74257 0.869995 5.99997 0.869995Z" fill="white"/>
</svg>
