<svg width="22" height="22" viewBox="0 0 22 22" fill="none" xmlns="http://www.w3.org/2000/svg">
<path fill-rule="evenodd" clip-rule="evenodd" d="M6.33326 17.53C5.08882 17.53 4.18222 18.1534 3.48222 18.6201C2.78222 19.0868 2.28882 19.3967 1.6666 19.3967C1.54292 19.3949 1.42013 19.4178 1.30536 19.4639C1.19059 19.51 1.08613 19.5785 0.998051 19.6653C0.909971 19.7522 0.840031 19.8556 0.792291 19.9697C0.744551 20.0839 0.719971 20.2063 0.719971 20.33C0.719971 20.4537 0.744551 20.5761 0.792291 20.6903C0.840031 20.8044 0.909971 20.9078 0.998051 20.9947C1.08613 21.0815 1.19059 21.15 1.30536 21.1961C1.42013 21.2422 1.54292 21.2651 1.6666 21.2633C2.91104 21.2633 3.81764 20.6399 4.51764 20.1732C5.21764 19.7066 5.71104 19.3967 6.33326 19.3967C6.95548 19.3967 7.44889 19.7066 8.14889 20.1732C8.84889 20.6399 9.75548 21.2633 11 21.2633C12.2444 21.2633 13.151 20.6399 13.851 20.1732C14.551 19.7066 15.0444 19.3967 15.6666 19.3967C16.2888 19.3967 16.7823 19.7066 17.4823 20.1732C18.1822 20.6399 19.0888 21.2633 20.3333 21.2633C20.457 21.2651 20.5798 21.2422 20.6945 21.1961C20.8093 21.15 20.9138 21.0815 21.0018 20.9947C21.0899 20.9078 21.1599 20.8044 21.2076 20.6903C21.2553 20.5761 21.2799 20.4537 21.2799 20.33C21.2799 20.2063 21.2553 20.0839 21.2076 19.9697C21.1599 19.8556 21.0899 19.7522 21.0018 19.6653C20.9138 19.5785 20.8093 19.51 20.6945 19.4639C20.5798 19.4178 20.457 19.3949 20.3333 19.3967C19.7111 19.3967 19.2177 19.0868 18.5177 18.6201C17.8177 18.1534 16.9111 17.53 15.6666 17.53C14.4222 17.53 13.5156 18.1534 12.8156 18.6201C12.1156 19.0868 11.6222 19.3967 11 19.3967C10.3777 19.3967 9.8843 19.0868 9.1843 18.6201C8.4843 18.1534 7.57771 17.53 6.33326 17.53ZM6.33326 11.93C5.08882 11.93 4.18222 12.5534 3.48222 13.0201C2.78222 13.4868 2.28882 13.7967 1.6666 13.7967C1.54292 13.7949 1.42013 13.8178 1.30536 13.8639C1.19059 13.91 1.08613 13.9785 0.998051 14.0653C0.909971 14.1522 0.840031 14.2556 0.792291 14.3697C0.744551 14.4839 0.719971 14.6063 0.719971 14.73C0.719971 14.8537 0.744551 14.9761 0.792291 15.0903C0.840031 15.2044 0.909971 15.3078 0.998051 15.3947C1.08613 15.4815 1.19059 15.55 1.30536 15.5961C1.42013 15.6422 1.54292 15.6651 1.6666 15.6633C2.91104 15.6633 3.81764 15.0399 4.51764 14.5732C5.21764 14.1066 5.71104 13.7967 6.33326 13.7967C6.95548 13.7967 7.44889 14.1066 8.14889 14.5732C8.84889 15.0399 9.75548 15.6633 11 15.6633C12.2444 15.6633 13.151 15.0399 13.851 14.5732C14.551 14.1066 15.0444 13.7967 15.6666 13.7967C16.2888 13.7967 16.7823 14.1066 17.4823 14.5732C18.1822 15.0399 19.0888 15.6633 20.3333 15.6633C20.457 15.6651 20.5798 15.6422 20.6945 15.5961C20.8093 15.55 20.9138 15.4815 21.0018 15.3947C21.0899 15.3078 21.1599 15.2044 21.2076 15.0903C21.2553 14.9761 21.2799 14.8537 21.2799 14.73C21.2799 14.6063 21.2553 14.4839 21.2076 14.3697C21.1599 14.2556 21.0899 14.1522 21.0018 14.0653C20.9138 13.9785 20.8093 13.91 20.6945 13.8639C20.5798 13.8178 20.457 13.7949 20.3333 13.7967C19.7111 13.7967 19.2177 13.4868 18.5177 13.0201C17.8177 12.5534 16.9111 11.93 15.6666 11.93C14.4222 11.93 13.5156 12.5534 12.8156 13.0201C12.1156 13.4868 11.6222 13.7967 11 13.7967C10.3777 13.7967 9.8843 13.4868 9.1843 13.0201C8.4843 12.5534 7.57771 11.93 6.33326 11.93ZM6.33326 6.33C5.08882 6.33 4.18222 6.95344 3.48222 7.4201C2.78222 7.88677 2.28882 8.19667 1.6666 8.19667C1.54292 8.19492 1.42013 8.21777 1.30536 8.26389C1.19059 8.31 1.08613 8.37848 0.998051 8.46532C0.909971 8.55216 0.840031 8.65564 0.792291 8.76975C0.744551 8.88385 0.719971 9.00631 0.719971 9.13C0.719971 9.25369 0.744551 9.37615 0.792291 9.49025C0.840031 9.60436 0.909971 9.70784 0.998051 9.79468C1.08613 9.88152 1.19059 9.94999 1.30536 9.99611C1.42013 10.0422 1.54292 10.0651 1.6666 10.0633C2.91104 10.0633 3.81764 9.4399 4.51764 8.97323C5.21764 8.50656 5.71104 8.19667 6.33326 8.19667C6.95548 8.19667 7.44889 8.50656 8.14889 8.97323C8.84889 9.4399 9.75548 10.0633 11 10.0633C12.2444 10.0633 13.151 9.4399 13.851 8.97323C14.551 8.50656 15.0444 8.19667 15.6666 8.19667C16.2888 8.19667 16.7823 8.50656 17.4823 8.97323C18.1822 9.4399 19.0888 10.0633 20.3333 10.0633C20.457 10.0651 20.5798 10.0422 20.6945 9.99611C20.8093 9.94999 20.9138 9.88152 21.0018 9.79468C21.0899 9.70784 21.1599 9.60436 21.2076 9.49025C21.2553 9.37615 21.2799 9.25369 21.2799 9.13C21.2799 9.00631 21.2553 8.88385 21.2076 8.76975C21.1599 8.65564 21.0899 8.55216 21.0018 8.46532C20.9138 8.37848 20.8093 8.31 20.6945 8.26389C20.5798 8.21777 20.457 8.19492 20.3333 8.19667C19.7111 8.19667 19.2177 7.88677 18.5177 7.4201C17.8177 6.95344 16.9111 6.33 15.6666 6.33C14.4222 6.33 13.5156 6.95344 12.8156 7.4201C12.1156 7.88677 11.6222 8.19667 11 8.19667C10.3777 8.19667 9.8843 7.88677 9.1843 7.4201C8.4843 6.95344 7.57771 6.33 6.33326 6.33ZM6.33326 0.730003C5.08882 0.730003 4.18222 1.35344 3.48222 1.8201C2.78222 2.28677 2.28882 2.59667 1.6666 2.59667C1.54292 2.59492 1.42013 2.61777 1.30536 2.66389C1.19059 2.71001 1.08613 2.77848 0.998051 2.86532C0.909971 2.95216 0.840031 3.05564 0.792291 3.16975C0.744551 3.28385 0.719971 3.40631 0.719971 3.53C0.719971 3.65369 0.744551 3.77615 0.792291 3.89025C0.840031 4.00436 0.909971 4.10784 0.998051 4.19468C1.08613 4.28152 1.19059 4.34999 1.30536 4.39611C1.42013 4.44223 1.54292 4.46508 1.6666 4.46333C2.91104 4.46333 3.81764 3.8399 4.51764 3.37323C5.21764 2.90656 5.71104 2.59667 6.33326 2.59667C6.95548 2.59667 7.44889 2.90656 8.14889 3.37323C8.84889 3.8399 9.75548 4.46333 11 4.46333C12.2444 4.46333 13.151 3.8399 13.851 3.37323C14.551 2.90656 15.0444 2.59667 15.6666 2.59667C16.2888 2.59667 16.7823 2.90656 17.4823 3.37323C18.1822 3.8399 19.0888 4.46333 20.3333 4.46333C20.457 4.46508 20.5798 4.44223 20.6945 4.39611C20.8093 4.34999 20.9138 4.28152 21.0018 4.19468C21.0899 4.10784 21.1599 4.00436 21.2076 3.89025C21.2553 3.77615 21.2799 3.65369 21.2799 3.53C21.2799 3.40631 21.2553 3.28385 21.2076 3.16975C21.1599 3.05564 21.0899 2.95216 21.0018 2.86532C20.9138 2.77848 20.8093 2.71001 20.6945 2.66389C20.5798 2.61777 20.457 2.59492 20.3333 2.59667C19.7111 2.59667 19.2177 2.28677 18.5177 1.8201C17.8177 1.35344 16.9111 0.730003 15.6666 0.730003C14.4222 0.730003 13.5156 1.35344 12.8156 1.8201C12.1156 2.28677 11.6222 2.59667 11 2.59667C10.3777 2.59667 9.8843 2.28677 9.1843 1.8201C8.4843 1.35344 7.57771 0.730003 6.33326 0.730003Z" fill="white"/>
</svg>
