<svg width="26" height="23" viewBox="0 0 26 23" fill="none" xmlns="http://www.w3.org/2000/svg">
<path fill-rule="evenodd" clip-rule="evenodd" d="M1.73911 12.9206C1.60087 12.9286 1.46615 12.9673 1.34472 13.0339C1.22329 13.1005 1.1182 13.1932 1.03705 13.3054C0.955895 13.4176 0.900735 13.5465 0.875555 13.6827C0.850375 13.8188 0.855805 13.9589 0.891445 14.0927L2.40447 20.1448C2.40447 20.1454 2.40447 20.146 2.40447 20.1466C2.71547 21.3878 3.84201 22.2667 5.12244 22.2667H20.8743C22.1547 22.2667 23.2806 21.3868 23.5904 20.1448L25.1034 14.0927C25.1332 13.9737 25.1391 13.85 25.1211 13.7287C25.103 13.6074 25.0612 13.4909 24.998 13.3857C24.9349 13.2806 24.8517 13.1889 24.7531 13.1159C24.6545 13.043 24.5425 12.9901 24.4235 12.9604C24.3046 12.9307 24.1809 12.9248 24.0596 12.9429C23.9383 12.961 23.8217 13.0029 23.7166 13.066C23.6115 13.1292 23.5198 13.2124 23.4469 13.311C23.3739 13.4096 23.3211 13.5216 23.2915 13.6406L22.6224 16.3185C21.9866 16.5047 21.2361 16.6667 20.4641 16.6667C18.5974 16.6667 16.7308 15.7333 16.7308 15.7333C16.7308 15.7333 14.8641 16.6667 12.9974 16.6667C11.1308 16.6667 9.2641 15.7333 9.2641 15.7333C9.2641 15.7333 7.39744 16.6667 5.53077 16.6667C4.75869 16.6667 4.0083 16.5045 3.37244 16.3185L2.70343 13.6406C2.65692 13.4418 2.54652 13.2638 2.38914 13.1337C2.23176 13.0037 2.03607 12.9288 1.83207 12.9206C1.8011 12.919 1.77007 12.919 1.7391 12.9206H1.73911ZM12.9974 12C12.9974 12 12.0641 13.3515 12.0641 13.8667C12.0641 14.3819 12.4822 14.8 12.9974 14.8C13.5126 14.8 13.9308 14.3819 13.9308 13.8667C13.9308 13.3515 12.9974 12 12.9974 12ZM9.2641 11.0667C9.2641 11.0667 8.33077 12.4181 8.33077 12.9333C8.33077 13.4485 8.7489 13.8667 9.2641 13.8667C9.77929 13.8667 10.1974 13.4485 10.1974 12.9333C10.1974 12.4181 9.2641 11.0667 9.2641 11.0667ZM16.7308 10.1333C16.7308 10.1333 15.7974 11.4848 15.7974 12C15.7974 12.5152 16.2156 12.9333 16.7308 12.9333C17.246 12.9333 17.6641 12.5152 17.6641 12C17.6641 11.4848 16.7308 10.1333 16.7308 10.1333ZM11.5974 0.800003C10.8124 0.800713 10.0539 1.08408 9.46074 1.59827C8.86756 2.11245 8.47937 2.82305 8.36723 3.60001C8.35508 3.59993 8.34292 3.59993 8.33077 3.60001C7.58817 3.60001 6.87597 3.89501 6.35087 4.42011C5.82577 4.94521 5.53077 5.6574 5.53077 6.40001C5.53077 7.14262 5.82577 7.85481 6.35087 8.37991C6.87597 8.90501 7.58817 9.20001 8.33077 9.20001H18.5974C19.0925 9.20001 19.5673 9.00334 19.9174 8.65328C20.2674 8.30321 20.4641 7.82841 20.4641 7.33334C20.4641 6.83827 20.2674 6.36348 19.9174 6.01341C19.5673 5.66334 19.0925 5.46668 18.5974 5.46668H18.5938C18.5938 4.7247 18.2993 4.01306 17.775 3.48807C17.2507 2.96307 16.5394 2.66764 15.7974 2.66668C15.402 2.66742 15.0112 2.75192 14.6508 2.91459C14.4168 2.29375 13.9993 1.75888 13.4539 1.38114C12.9085 1.0034 12.2609 0.800703 11.5974 0.800013V0.800003Z" fill="white"/>
</svg>
