<svg width="17" height="16" viewBox="0 0 17 16" fill="none" xmlns="http://www.w3.org/2000/svg">
<path fill-rule="evenodd" clip-rule="evenodd" d="M8.49985 2.65398L10.4674 5.68328L10.7183 6.07L11.1636 6.18953L14.6522 7.12352L12.3788 9.93133L12.0894 10.2888L12.1128 10.7493L12.3026 14.3563L8.92993 13.0614L8.49985 12.8962V2.65398ZM8.49985 0.970001C8.30365 0.970001 8.10695 1.05507 7.99595 1.22547L5.52681 5.03055L1.144 6.20359C0.947801 6.25579 0.792161 6.40354 0.729161 6.59734C0.666761 6.79054 0.705661 7.00322 0.833461 7.16102L3.68932 10.686L3.45143 15.2153C3.44063 15.4181 3.53312 15.6127 3.69752 15.7321C3.74502 15.7668 3.79826 15.7916 3.85221 15.8106C3.86761 15.816 3.88334 15.8182 3.89908 15.8223C3.93929 15.8329 3.97948 15.8402 4.02096 15.8423C4.03087 15.8428 4.04032 15.847 4.05026 15.847C4.05893 15.847 4.06735 15.8426 4.07604 15.8423C4.14029 15.8396 4.20419 15.8305 4.26588 15.8071L8.49986 14.1817L12.7351 15.8071C12.8047 15.8335 12.8769 15.847 12.9495 15.847C13.0743 15.847 13.1984 15.8077 13.3022 15.7321C13.4666 15.6127 13.5591 15.4181 13.5483 15.2153L13.3116 10.686L16.1663 7.16102C16.2935 7.00322 16.3336 6.79054 16.2706 6.59734C16.2076 6.40414 16.052 6.25639 15.8558 6.20359L11.473 5.03055L9.00377 1.22547C8.89337 1.05507 8.69606 0.970001 8.49986 0.970001H8.49985Z" fill="#FF9C41"/>
</svg>
