<svg width="16" height="16" viewBox="0 0 16 16" fill="none" xmlns="http://www.w3.org/2000/svg">
<path fill-rule="evenodd" clip-rule="evenodd" d="M10.6985 12.2C10.3007 12.2 9.91917 12.358 9.63786 12.6393C9.35656 12.9206 9.19852 13.3022 9.19852 13.7C9.19852 14.0978 9.35656 14.4794 9.63786 14.7607C9.91917 15.042 10.3007 15.2 10.6985 15.2C11.0964 15.2 11.4779 15.042 11.7592 14.7607C12.0405 14.4794 12.1985 14.0978 12.1985 13.7C12.1985 13.3022 12.0405 12.9206 11.7592 12.6393C11.4779 12.358 11.0964 12.2 10.6985 12.2ZM5.29852 12.2C4.9007 12.2 4.51917 12.358 4.23786 12.6393C3.95656 12.9206 3.79852 13.3022 3.79852 13.7C3.79852 14.0978 3.95656 14.4794 4.23786 14.7607C4.51917 15.042 4.9007 15.2 5.29852 15.2C5.69635 15.2 6.07788 15.042 6.35918 14.7607C6.64049 14.4794 6.79852 14.0978 6.79852 13.7C6.79852 13.3022 6.64049 12.9206 6.35918 12.6393C6.07788 12.358 5.69635 12.2 5.29852 12.2ZM1.39853 7.99999L1.99502 9.49179C2.35982 10.4026 3.24115 11 4.22275 11H11.7743C12.7553 11 13.6373 10.4026 14.0021 9.49179L14.5985 7.99999H1.39853ZM10.9985 0.799988L9.39891 5.59999H7.95399C7.57765 5.23144 7.06758 4.99999 6.49852 4.99999C5.92947 4.99999 5.4194 5.23144 5.04306 5.59999H1.39853C1.31902 5.59887 1.24009 5.61355 1.16631 5.6432C1.09253 5.67285 1.02538 5.71687 0.968748 5.77269C0.912128 5.82852 0.867168 5.89504 0.836478 5.9684C0.805788 6.04175 0.789988 6.12047 0.789988 6.19999C0.789988 6.2795 0.805788 6.35823 0.836478 6.43158C0.867168 6.50494 0.912128 6.57146 0.968748 6.62729C1.02537 6.68311 1.09253 6.72713 1.16631 6.75678C1.24009 6.78643 1.31903 6.80111 1.39854 6.79999H14.5985C14.6781 6.80111 14.757 6.78643 14.8308 6.75678C14.9045 6.72713 14.9717 6.68311 15.0283 6.62729C15.0849 6.57146 15.1299 6.50494 15.1606 6.43158C15.1913 6.35823 15.2071 6.2795 15.2071 6.19999C15.2071 6.12047 15.1913 6.04175 15.1606 5.9684C15.1299 5.89504 15.0849 5.82852 15.0283 5.77269C14.9717 5.71687 14.9045 5.67285 14.8308 5.6432C14.757 5.61355 14.6781 5.59887 14.5985 5.59999H14.5669C14.2429 1.88924 10.9985 0.799988 10.9985 0.799988H10.9985ZM6.49852 0.799988C6.1007 0.799988 5.71917 0.958018 5.43786 1.23933C5.15656 1.52063 4.99852 1.90217 4.99852 2.29999C4.99925 2.42416 5.01539 2.54776 5.04657 2.66796C4.78839 2.7271 4.49093 2.83571 4.26259 3.06405C3.76579 3.56085 3.7997 4.39882 3.7997 4.39882C3.7997 4.39882 4.63766 4.43273 5.13446 3.93593C5.29777 3.77262 5.39153 3.57583 5.46024 3.38046C5.7392 3.64909 6.11125 3.79942 6.49852 3.79999C6.89635 3.79999 7.27788 3.64195 7.55918 3.36065C7.84049 3.07935 7.99852 2.69781 7.99852 2.29999C7.99852 1.90217 7.84049 1.52063 7.55918 1.23933C7.27788 0.958018 6.89635 0.799988 6.49852 0.799988Z" fill="white"/>
</svg>
