<svg width="25" height="25" viewBox="0 0 25 25" fill="none" xmlns="http://www.w3.org/2000/svg">
<path fill-rule="evenodd" clip-rule="evenodd" d="M2.71536 7.38346C2.46814 7.38732 2.23256 7.48911 2.06031 7.66649C1.88806 7.84386 1.79322 8.08233 1.79661 8.32955C1.67293 8.3278 1.55014 8.35065 1.43537 8.39677C1.3206 8.44289 1.21614 8.51136 1.12806 8.5982C1.03998 8.68504 0.970036 8.78852 0.922296 8.90263C0.874556 9.01674 0.849976 9.13919 0.849976 9.26289C0.849976 9.38657 0.874556 9.50903 0.922296 9.62314C0.970036 9.73725 1.03998 9.84073 1.12806 9.92757C1.21614 10.0144 1.3206 10.0829 1.43537 10.129C1.55014 10.1751 1.67293 10.198 1.79661 10.1962C1.79486 10.3199 1.81771 10.4427 1.86383 10.5575C1.90995 10.6722 1.97842 10.7767 2.06526 10.8648C2.1521 10.9528 2.25558 11.0228 2.36969 11.0705C2.48379 11.1183 2.60625 11.1428 2.72994 11.1428C2.85363 11.1428 2.97609 11.1183 3.09019 11.0705C3.2043 11.0228 3.30778 10.9528 3.39462 10.8648C3.48146 10.7767 3.54993 10.6722 3.59605 10.5575C3.64217 10.4427 3.66502 10.3199 3.66327 10.1962C3.78695 10.198 3.90974 10.1751 4.02451 10.129C4.13928 10.0829 4.24374 10.0144 4.33182 9.92757C4.4199 9.84073 4.48984 9.73725 4.53758 9.62314C4.58532 9.50903 4.6099 9.38657 4.6099 9.26289C4.6099 9.13919 4.58532 9.01674 4.53758 8.90263C4.48984 8.78852 4.4199 8.68504 4.33182 8.5982C4.24374 8.51136 4.13928 8.44289 4.02451 8.39677C3.90974 8.35065 3.78695 8.3278 3.66327 8.32955C3.66498 8.20468 3.64162 8.08074 3.59456 7.96506C3.54751 7.84938 3.47772 7.74432 3.38933 7.6561C3.30094 7.56788 3.19575 7.4983 3.07998 7.45147C2.96421 7.40463 2.84022 7.38151 2.71536 7.38346ZM12.2018 6.46471C8.78862 7.78537 6.46327 11.189 6.46327 15.0689C6.46327 20.1098 10.5497 24.1962 15.5906 24.1962C19.4705 24.1962 22.875 21.8718 24.1966 18.4595C23.1746 18.8552 21.9671 18.9808 20.806 18.9808C15.7651 18.9808 11.6805 14.8944 11.6805 9.85351C11.6805 8.69244 11.8061 7.48577 12.2018 6.46471ZM23.863 1.80169L21.1505 2.54179C20.7445 2.65286 20.4633 3.02138 20.4633 3.44231V7.77721C20.4633 8.94107 17.6633 8.08118 17.6633 10.5116C17.6633 11.4449 18.2162 12.0629 19.2802 12.0629C20.9229 12.0629 21.3966 10.8148 21.3966 9.42877V4.95716L23.9633 4.18971C24.0986 4.16264 24.1966 4.04347 24.1966 3.90533V2.07512C24.1966 1.89872 24.0357 1.76715 23.863 1.80169ZM7.38202 0.850116C7.13481 0.853976 6.89922 0.955766 6.72697 1.13315C6.55473 1.31052 6.45989 1.54899 6.46327 1.79622V2.72955H5.52994C5.40626 2.7278 5.28347 2.75065 5.1687 2.79677C5.05393 2.84289 4.94947 2.91136 4.86139 2.9982C4.77331 3.08504 4.70337 3.18852 4.65563 3.30263C4.6079 3.41674 4.58331 3.53919 4.58331 3.66288C4.58331 3.78657 4.6079 3.90903 4.65563 4.02314C4.70337 4.13724 4.77331 4.24073 4.86139 4.32757C4.94947 4.41441 5.05393 4.48288 5.1687 4.529C5.28347 4.57512 5.40626 4.59797 5.52994 4.59622H6.46327V5.52955C6.46152 5.65323 6.48437 5.77602 6.53049 5.89079C6.57661 6.00556 6.64508 6.11002 6.73192 6.1981C6.81877 6.28618 6.92225 6.35612 7.03635 6.40386C7.15046 6.45159 7.27292 6.47618 7.39661 6.47618C7.5203 6.47618 7.64275 6.45159 7.75686 6.40386C7.87097 6.35612 7.97445 6.28618 8.06129 6.1981C8.14813 6.11002 8.2166 6.00556 8.26272 5.89079C8.30884 5.77602 8.33169 5.65323 8.32994 5.52955V4.59622H9.26327C9.38695 4.59797 9.50974 4.57512 9.62451 4.529C9.73928 4.48288 9.84374 4.41441 9.93182 4.32757C10.0199 4.24073 10.0898 4.13724 10.1376 4.02314C10.1853 3.90903 10.2099 3.78657 10.2099 3.66288C10.2099 3.53919 10.1853 3.41674 10.1376 3.30263C10.0898 3.18852 10.0199 3.08504 9.93182 2.9982C9.84374 2.91136 9.73928 2.84289 9.62451 2.79677C9.50974 2.75065 9.38695 2.7278 9.26327 2.72955H8.32994V1.79622C8.33165 1.67135 8.30829 1.54741 8.26123 1.43173C8.21418 1.31605 8.14439 1.21099 8.056 1.12277C7.96761 1.03455 7.86241 0.964956 7.74665 0.918126C7.63088 0.871296 7.50689 0.848166 7.38202 0.850116Z" fill="white"/>
</svg>
