<svg width="26" height="26" viewBox="0 0 26 26" fill="none" xmlns="http://www.w3.org/2000/svg">
<path fill-rule="evenodd" clip-rule="evenodd" d="M12.0635 13.002C12.3023 13.002 12.5414 13.093 12.7234 13.2754C13.0884 13.6394 13.0884 14.2312 12.7234 14.5952L11.7901 15.5286C11.4252 15.8935 10.8343 15.8935 10.4703 15.5286C10.1053 15.1636 10.1053 14.5728 10.4703 14.2088L11.4036 13.2754C11.5861 13.093 11.8247 13.002 12.0635 13.002ZM10.1968 6.46868L8.93173 8.36633C8.56027 8.92353 8.51547 9.63744 8.81507 10.2366L9.2635 11.1353L3.18043 18.077C2.89016 18.4158 2.73017 18.8468 2.73017 19.2929V21.9489L1.13694 23.5421C1.04737 23.6281 0.975846 23.7311 0.926576 23.8451C0.877306 23.9591 0.851286 24.0818 0.850016 24.2059C0.848756 24.3301 0.872276 24.4533 0.919216 24.5683C0.966156 24.6832 1.03556 24.7877 1.12337 24.8755C1.21118 24.9633 1.31562 25.0327 1.43059 25.0796C1.54556 25.1266 1.66873 25.1501 1.7929 25.1488C1.91707 25.1476 2.03975 25.1215 2.15373 25.0723C2.26772 25.023 2.37073 24.9515 2.45673 24.8619L4.04996 23.2687H6.70595C7.15115 23.2687 7.58304 23.1087 7.92184 22.8184L14.8635 16.7353L15.7622 17.1838C16.3614 17.4834 17.0753 17.4386 17.6325 17.0671L19.5302 15.802C19.5302 15.802 19.5302 12.0687 16.7302 9.26868C13.9302 6.46868 10.1968 6.46868 10.1968 6.46868ZM15.8752 3.81998C15.6658 3.82879 15.4655 3.90782 15.3065 4.04434C15.1475 4.18087 15.039 4.36693 14.9986 4.57258C14.9582 4.77824 14.9882 4.99151 15.0837 5.17805C15.1792 5.3646 15.3348 5.51357 15.5252 5.60097C17.6576 6.61457 19.3843 8.34122 20.3979 10.4736C20.4476 10.5888 20.5201 10.6928 20.6109 10.7793C20.7018 10.8658 20.8091 10.9332 20.9266 10.9773C21.044 11.0214 21.1692 11.0414 21.2945 11.0361C21.4199 11.0307 21.5428 11.0002 21.6561 10.9462C21.7694 10.8923 21.8706 10.8161 21.9538 10.7221C22.0369 10.6282 22.1003 10.5184 22.1401 10.3994C22.1798 10.2805 22.1952 10.1547 22.1853 10.0296C22.1754 9.90454 22.1403 9.78276 22.0823 9.67154C20.8839 7.15035 18.8485 5.11499 16.3273 3.91659C16.1871 3.84699 16.0317 3.81377 15.8752 3.81998ZM16.5333 0.0301288C16.3161 0.0335088 16.1069 0.112529 15.9417 0.253599C15.7765 0.394659 15.6657 0.588929 15.6283 0.802929C15.5909 1.01693 15.6294 1.23725 15.737 1.42594C15.8447 1.61463 16.0147 1.75988 16.218 1.83665C19.8506 3.25628 22.7426 6.1483 24.1622 9.78092C24.2069 9.8951 24.2736 9.99938 24.3585 10.0878C24.4435 10.1762 24.545 10.247 24.6573 10.2962C24.7696 10.3454 24.8905 10.3719 25.0131 10.3744C25.1357 10.3768 25.2575 10.3551 25.3717 10.3105C25.4859 10.2658 25.5902 10.1991 25.6786 10.1142C25.767 10.0292 25.8378 9.92771 25.887 9.81539C25.9362 9.70308 25.9627 9.58218 25.9652 9.4596C25.9676 9.33702 25.9459 9.21516 25.9013 9.10097C24.2913 4.98132 21.0175 1.70755 16.8979 0.0975788C16.7821 0.0509388 16.6581 0.0280088 16.5333 0.0301288Z" fill="white"/>
</svg>
