<svg width="24" height="24" viewBox="0 0 24 24" fill="none" xmlns="http://www.w3.org/2000/svg">
<path fill-rule="evenodd" clip-rule="evenodd" d="M18.4652 4.53329C19.0252 4.53329 19.3985 4.90663 19.3985 5.46663C19.3985 6.02663 19.0252 6.39996 18.4652 6.39996C17.9052 6.39996 17.5318 6.02663 17.5318 5.46663C17.5318 4.90663 17.9052 4.53329 18.4652 4.53329ZM15.461 0.803609C12.4267 0.910939 10.0652 3.49779 10.0652 6.53486V8.26663C10.0652 9.97276 9.12436 10.8354 7.92876 11.2507C6.63422 11.7015 5.15925 12.1411 4.90818 12.226C4.20725 12.4612 4.33545 13.0396 4.50532 13.2888C5.51425 14.7644 7.20921 15.7333 9.13188 15.7333C10.0783 15.7333 10.8673 15.5612 11.5253 15.283C12.2459 14.9788 12.7851 15.9612 12.1579 16.4278C11.2199 17.1232 9.94201 17.6 8.19855 17.6C5.97908 17.6 4.02077 16.4912 2.83917 14.8H0.985271C0.354341 14.8 -0.0503886 15.3104 0.349071 16.0468C1.25253 17.7082 3.42362 20.515 7.98344 21.1856C7.64955 21.4645 7.44204 21.7198 7.44204 21.7198C7.37019 21.8191 7.31862 21.9316 7.29026 22.0509C7.26191 22.1702 7.25733 22.2939 7.27678 22.4149C7.29624 22.536 7.33935 22.652 7.40365 22.7564C7.46796 22.8608 7.5522 22.9515 7.65156 23.0233C7.75092 23.0951 7.86345 23.1467 7.98274 23.175C8.10202 23.2033 8.22572 23.2079 8.34676 23.1884C8.46781 23.1689 8.58383 23.1258 8.6882 23.0615C8.79257 22.9971 8.88325 22.9129 8.95506 22.8135C8.95506 22.8135 9.36192 22.2666 10.0652 22.2666C10.4168 22.2666 11.0516 22.4487 11.5472 22.6586C12.0428 22.8684 12.3967 23.0742 12.3967 23.0742C12.5027 23.1357 12.6199 23.1757 12.7414 23.192C12.8629 23.2082 12.9864 23.2004 13.1049 23.1689C13.2234 23.1374 13.3345 23.0829 13.432 23.0085C13.5294 22.9341 13.6112 22.8412 13.6727 22.7351C13.7342 22.6291 13.7743 22.5119 13.7905 22.3904C13.8068 22.2689 13.799 22.1454 13.7675 22.0269C13.736 21.9084 13.6815 21.7973 13.607 21.6998C13.5326 21.6024 13.4397 21.5206 13.3337 21.4591C13.3337 21.4591 12.9925 21.2753 12.5498 21.0708C19.5693 19.5105 21.0369 11.4141 21.2214 7.36975L22.8037 6.77913C23.206 6.62979 23.2491 6.07767 22.8748 5.86767L21.0391 4.84137C20.3452 2.44666 18.101 0.710039 15.461 0.803609Z" fill="white"/>
</svg>
