<?xml version="1.0" encoding="UTF-8"?>
<svg xmlns="http://www.w3.org/2000/svg" xmlns:xlink="http://www.w3.org/1999/xlink" width="32px" height="32px" viewBox="0 0 32 32" version="1.1">
<g id="surface1">
<path style=" stroke:none;fill-rule:evenodd;fill:rgb(28.235294%,43.921569%,100%);fill-opacity:1;" d="M 26.183594 8.148438 C 25.539062 8.148438 25.019531 8.667969 25.019531 9.3125 L 25.019531 10.472656 C 25.019531 11.117188 24.496094 11.636719 23.855469 11.636719 L 22.691406 11.636719 C 22.046875 11.636719 21.527344 12.160156 21.527344 12.800781 C 21.527344 13.445312 22.046875 13.964844 22.691406 13.964844 L 23.855469 13.964844 C 24.496094 13.964844 25.019531 14.488281 25.019531 15.128906 L 25.019531 16.292969 C 25.019531 16.933594 25.539062 17.457031 26.183594 17.457031 C 26.824219 17.457031 27.34375 16.933594 27.34375 16.292969 L 27.34375 15.128906 C 27.34375 14.488281 27.867188 13.964844 28.507812 13.964844 L 29.671875 13.964844 C 30.316406 13.964844 30.835938 13.445312 30.835938 12.800781 C 30.835938 12.160156 30.316406 11.636719 29.671875 11.636719 L 28.507812 11.636719 C 27.867188 11.636719 27.34375 11.117188 27.34375 10.472656 L 27.34375 9.3125 C 27.34375 8.667969 26.824219 8.148438 26.183594 8.148438 Z M 11.507812 3.832031 C 5.257812 5.222656 0.582031 10.789062 0.582031 17.457031 C 0.582031 25.167969 6.835938 31.417969 14.546875 31.417969 C 21.214844 31.417969 26.78125 26.742188 28.167969 20.492188 C 26.378906 21.515625 24.316406 22.109375 22.109375 22.109375 C 15.359375 22.109375 9.890625 16.640625 9.890625 9.890625 C 9.890625 7.683594 10.484375 5.621094 11.507812 3.832031 Z M 19.183594 -0.015625 C 18.875 -0.0078125 18.578125 0.117188 18.363281 0.339844 C 18.152344 0.558594 18.03125 0.855469 18.035156 1.164062 L 18.035156 2.328125 L 16.871094 2.328125 C 16.71875 2.328125 16.566406 2.355469 16.421875 2.414062 C 16.277344 2.46875 16.148438 2.554688 16.039062 2.664062 C 15.929688 2.773438 15.84375 2.902344 15.78125 3.042969 C 15.722656 3.183594 15.691406 3.339844 15.691406 3.492188 C 15.691406 3.648438 15.722656 3.800781 15.78125 3.941406 C 15.84375 4.082031 15.929688 4.210938 16.039062 4.320312 C 16.148438 4.429688 16.277344 4.515625 16.421875 4.570312 C 16.566406 4.628906 16.71875 4.660156 16.871094 4.65625 L 18.035156 4.65625 L 18.035156 5.820312 C 18.035156 5.972656 18.0625 6.128906 18.121094 6.269531 C 18.175781 6.414062 18.261719 6.542969 18.371094 6.652344 C 18.480469 6.761719 18.609375 6.851562 18.75 6.910156 C 18.894531 6.96875 19.046875 7 19.199219 7 C 19.355469 7 19.507812 6.96875 19.648438 6.910156 C 19.792969 6.851562 19.921875 6.761719 20.027344 6.652344 C 20.136719 6.542969 20.222656 6.414062 20.28125 6.269531 C 20.335938 6.128906 20.367188 5.972656 20.363281 5.820312 L 20.363281 4.65625 L 21.527344 4.65625 C 21.679688 4.660156 21.835938 4.628906 21.976562 4.570312 C 22.121094 4.515625 22.25 4.429688 22.359375 4.320312 C 22.46875 4.210938 22.558594 4.082031 22.617188 3.941406 C 22.675781 3.800781 22.707031 3.648438 22.707031 3.492188 C 22.707031 3.339844 22.675781 3.183594 22.617188 3.042969 C 22.558594 2.902344 22.46875 2.773438 22.359375 2.664062 C 22.25 2.554688 22.121094 2.46875 21.976562 2.414062 C 21.835938 2.355469 21.679688 2.328125 21.527344 2.328125 L 20.363281 2.328125 L 20.363281 1.164062 C 20.367188 1.007812 20.335938 0.855469 20.277344 0.710938 C 20.21875 0.566406 20.132812 0.433594 20.023438 0.324219 C 19.910156 0.214844 19.78125 0.128906 19.636719 0.0703125 C 19.492188 0.0117188 19.335938 -0.015625 19.183594 -0.015625 Z M 19.183594 -0.015625 "/>
</g>
</svg>
