<?xml version="1.0" encoding="UTF-8"?>
<svg xmlns="http://www.w3.org/2000/svg" xmlns:xlink="http://www.w3.org/1999/xlink" width="24px" height="24px" viewBox="0 0 24 24" version="1.1">
<g id="surface1">
<path style=" stroke:none;fill-rule:evenodd;fill:rgb(28.235294%,43.921569%,100%);fill-opacity:1;" d="M 19.636719 6.109375 C 19.15625 6.109375 18.761719 6.5 18.761719 6.984375 L 18.761719 7.855469 C 18.761719 8.335938 18.371094 8.726562 17.890625 8.726562 L 17.019531 8.726562 C 16.535156 8.726562 16.144531 9.121094 16.144531 9.601562 C 16.144531 10.082031 16.535156 10.472656 17.019531 10.472656 L 17.890625 10.472656 C 18.371094 10.472656 18.761719 10.863281 18.761719 11.347656 L 18.761719 12.21875 C 18.761719 12.699219 19.15625 13.09375 19.636719 13.09375 C 20.117188 13.09375 20.507812 12.699219 20.507812 12.21875 L 20.507812 11.347656 C 20.507812 10.863281 20.898438 10.472656 21.382812 10.472656 L 22.253906 10.472656 C 22.734375 10.472656 23.128906 10.082031 23.128906 9.601562 C 23.128906 9.121094 22.734375 8.726562 22.253906 8.726562 L 21.382812 8.726562 C 20.898438 8.726562 20.507812 8.335938 20.507812 7.855469 L 20.507812 6.984375 C 20.507812 6.5 20.117188 6.109375 19.636719 6.109375 Z M 8.632812 2.875 C 3.945312 3.917969 0.4375 8.089844 0.4375 13.09375 C 0.4375 18.875 5.125 23.566406 10.910156 23.566406 C 15.910156 23.566406 20.085938 20.058594 21.125 15.371094 C 19.785156 16.136719 18.238281 16.582031 16.582031 16.582031 C 11.519531 16.582031 7.417969 12.480469 7.417969 7.417969 C 7.417969 5.765625 7.863281 4.214844 8.632812 2.875 Z M 14.386719 -0.0117188 C 14.15625 -0.0078125 13.933594 0.0898438 13.773438 0.253906 C 13.613281 0.417969 13.523438 0.644531 13.527344 0.875 L 13.527344 1.746094 L 12.65625 1.746094 C 12.539062 1.746094 12.425781 1.765625 12.316406 1.808594 C 12.210938 1.851562 12.113281 1.917969 12.03125 1.996094 C 11.945312 2.078125 11.882812 2.175781 11.835938 2.28125 C 11.792969 2.390625 11.769531 2.503906 11.769531 2.621094 C 11.769531 2.734375 11.792969 2.847656 11.835938 2.957031 C 11.882812 3.0625 11.945312 3.160156 12.03125 3.242188 C 12.113281 3.320312 12.210938 3.386719 12.316406 3.429688 C 12.425781 3.472656 12.539062 3.492188 12.65625 3.492188 L 13.527344 3.492188 L 13.527344 4.363281 C 13.527344 4.480469 13.546875 4.59375 13.589844 4.703125 C 13.632812 4.808594 13.695312 4.90625 13.777344 4.988281 C 13.859375 5.070312 13.957031 5.136719 14.0625 5.183594 C 14.167969 5.226562 14.285156 5.25 14.398438 5.25 C 14.515625 5.25 14.628906 5.226562 14.738281 5.183594 C 14.84375 5.136719 14.941406 5.070312 15.023438 4.988281 C 15.101562 4.90625 15.167969 4.808594 15.210938 4.703125 C 15.253906 4.59375 15.273438 4.480469 15.273438 4.363281 L 15.273438 3.492188 L 16.144531 3.492188 C 16.261719 3.492188 16.375 3.472656 16.484375 3.429688 C 16.589844 3.386719 16.6875 3.320312 16.769531 3.242188 C 16.851562 3.160156 16.917969 3.0625 16.964844 2.957031 C 17.007812 2.847656 17.03125 2.734375 17.03125 2.621094 C 17.03125 2.503906 17.007812 2.390625 16.964844 2.28125 C 16.917969 2.175781 16.851562 2.078125 16.769531 1.996094 C 16.6875 1.917969 16.589844 1.851562 16.484375 1.808594 C 16.375 1.765625 16.261719 1.746094 16.144531 1.746094 L 15.273438 1.746094 L 15.273438 0.875 C 15.273438 0.757812 15.253906 0.640625 15.207031 0.53125 C 15.164062 0.425781 15.097656 0.328125 15.015625 0.242188 C 14.933594 0.160156 14.835938 0.0976562 14.726562 0.0546875 C 14.617188 0.0078125 14.503906 -0.0117188 14.386719 -0.0117188 Z M 14.386719 -0.0117188 "/>
</g>
</svg>
